<svg xmlns="http://www.w3.org/2000/svg" xmlns:xlink="http://www.w3.org/1999/xlink" width="64" height="64" viewBox="0 0 64 64">
  <defs>
    <clipPath id="clip-icon_heart">
      <rect width="64" height="64"/>
    </clipPath>
  </defs>
  <g id="icon_heart" clip-path="url(#clip-icon_heart)">
    <g id="Union_1" data-name="Union 1" transform="translate(1.201 3.201)" fill="none">
      <path d="M10.9,31.113a14,14,0,0,1,19.8-19.8l.009.009q.2-.215.406-.423a14,14,0,0,1,19.8,19.8q-.209.209-.423.406l.009.009-19.8,19.8Z" stroke="none"/>
      <path d="M 30.69818496704102 43.84095764160156 L 43.42613983154297 31.11300659179688 L 43.26867294311523 30.95553970336914 L 47.101806640625 27.42613983154297 C 47.19551849365234 27.3398609161377 47.28796005249023 27.25118446350098 47.37657165527344 27.16257286071777 C 49.07609558105469 25.46305084228516 50.01206207275391 23.20309448242188 50.01206207275391 20.79900550842285 C 50.01206207275391 18.39491653442383 49.07609558105469 16.13496208190918 47.37656021118164 14.43542861938477 C 45.67661666870117 12.73548412322998 43.4163818359375 11.79927253723145 41.0122184753418 11.79927253723145 C 38.60821533203125 11.79927253723145 36.34831619262695 12.73537254333496 34.64826202392578 14.43572807312012 C 34.55934906005859 14.52461719512939 34.47078323364258 14.61690616607666 34.38500595092773 14.71005058288574 L 30.8533935546875 18.5448169708252 L 27.16936111450195 14.85622882843018 L 27.16228294372559 14.84913921356201 C 25.46279525756836 13.14937305450439 23.20293807983398 12.21327304840088 20.79900550842285 12.21327304840088 C 18.39507293701172 12.21327304840088 16.13521575927734 13.14937305450439 14.43543910980225 14.84942817687988 C 10.9263162612915 18.35856246948242 10.9263162612915 24.06834030151367 14.43551635742188 27.57755088806152 L 30.69818496704102 43.84095764160156 M 30.69810485839844 50.91210556030273 L 10.89990520477295 31.11300659179688 C 5.432405471801758 25.64549446105957 5.432405471801758 16.78140640258789 10.89990520477295 11.3138952255249 C 13.63320541381836 8.580144882202148 17.21610641479492 7.21327018737793 20.79900550842285 7.21327018737793 C 24.38190650939941 7.21327018737793 27.96480560302734 8.580144882202148 30.69810485839844 11.3138952255249 L 30.70708274841309 11.32288360595703 C 30.8388500213623 11.17980670928955 30.97418403625488 11.03870677947998 31.11300468444824 10.89990615844727 C 33.84630584716797 8.16615104675293 37.42920684814453 6.799273014068604 41.0122184753418 6.799273014068604 C 44.59523010253906 6.799273014068604 48.1783561706543 8.16615104675293 50.91210556030273 10.89990615844727 C 56.37870407104492 16.36650657653809 56.37870407104492 25.23150634765625 50.91210556030273 30.69810676574707 C 50.77294921875 30.83726119995117 50.63204956054688 30.97232818603516 50.48860549926758 31.10440635681152 L 50.4972038269043 31.11300659179688 L 30.69810485839844 50.91210556030273 Z" stroke="none" fill="#fff"/>
    </g>
  </g>
</svg>
